<svg width="788" height="1064" viewBox="0 0 788 1064" class="keymap" xmlns="http://www.w3.org/2000/svg" xmlns:xlink="http://www.w3.org/1999/xlink">
<style>/* inherit to force styles through use tags */
svg path {
    fill: inherit;
}

/* font and background color specifications */
svg.keymap {
    font-family: SFMono-Regular,Consolas,Liberation Mono,Menlo,monospace;
    font-size: 14px;
    font-kerning: normal;
    text-rendering: optimizeLegibility;
    fill: #24292e;
}

/* default key styling */
rect.key {
    fill: #f6f8fa;
}

rect.key, rect.combo {
    stroke: #c9cccf;
    stroke-width: 1;
}

/* default key side styling, only used is draw_key_sides is set */
rect.side {
    filter: brightness(90%);
}

/* color accent for combo boxes */
rect.combo, rect.combo-separate {
    fill: #cdf;
}

/* color accent for held keys */
rect.held, rect.combo.held {
    fill: #fdd;
}

/* color accent for ghost (optional) keys */
rect.ghost, rect.combo.ghost {
    stroke-dasharray: 4, 4;
    stroke-width: 2;
}

text {
    text-anchor: middle;
    dominant-baseline: middle;
}

/* styling for layer labels */
text.label {
    font-weight: bold;
    text-anchor: start;
    stroke: white;
    stroke-width: 4;
    paint-order: stroke;
}

/* styling for optional footer */
text.footer {
    text-anchor: end;
    dominant-baseline: auto;
    stroke: white;
    stroke-width: 4;
    paint-order: stroke;
}

/* styling for combo tap, and key non-tap label text */
text.combo, text.hold, text.shifted, text.left, text.right {
    font-size: 11px;
}

text.hold {
    text-anchor: middle;
    dominant-baseline: auto;
}

text.shifted {
    text-anchor: middle;
    dominant-baseline: hanging;
}

text.left {
    text-anchor: start;
}

text.right {
    text-anchor: end;
}

text.layer-activator {
    text-decoration: underline;
}

/* styling for hold/shifted label text in combo box */
text.combo.hold, text.combo.shifted, text.combo.left, text.combo.right {
    font-size: 8px;
}

/* lighter symbol for transparent keys */
text.trans {
    fill: #7b7e81;
}

/* styling for combo dendrons */
path.combo {
    stroke-width: 1;
    stroke: gray;
    fill: none;
}

/* Start Tabler Icons Cleanup */
/* cannot use height/width with glyphs */
.icon-tabler > path {
    fill: inherit;
    stroke: inherit;
    stroke-width: 2;
}
/* hide tabler's default box */
.icon-tabler > path[stroke="none"][fill="none"] {
    visibility: hidden;
}
/* End Tabler Icons Cleanup */
</style>
<g transform="translate(30, 0)" class="layer-LDT">
<text x="0" y="28" class="label" id="LDT">LDT:</text>
<g transform="translate(0, 56)">
<g transform="translate(28, 56)" class="key keypos-0">
<rect rx="6" ry="6" x="-26" y="-26" width="52" height="52" class="key"/>
<text x="0" y="0" class="key tap">Q</text>
</g>
<g transform="translate(84, 42)" class="key keypos-1">
<rect rx="6" ry="6" x="-26" y="-26" width="52" height="52" class="key"/>
<text x="0" y="0" class="key tap">W</text>
</g>
<g transform="translate(140, 28)" class="key keypos-2">
<rect rx="6" ry="6" x="-26" y="-26" width="52" height="52" class="key"/>
<text x="0" y="0" class="key tap">E</text>
</g>
<g transform="translate(196, 42)" class="key keypos-3">
<rect rx="6" ry="6" x="-26" y="-26" width="52" height="52" class="key"/>
<text x="0" y="0" class="key tap">R</text>
</g>
<g transform="translate(252, 56)" class="key keypos-4">
<rect rx="6" ry="6" x="-26" y="-26" width="52" height="52" class="key"/>
<text x="0" y="0" class="key tap">T</text>
</g>
<g transform="translate(476, 56)" class="key keypos-5">
<rect rx="6" ry="6" x="-26" y="-26" width="52" height="52" class="key"/>
<text x="0" y="0" class="key tap">Y</text>
</g>
<g transform="translate(532, 42)" class="key keypos-6">
<rect rx="6" ry="6" x="-26" y="-26" width="52" height="52" class="key"/>
<text x="0" y="0" class="key tap">U</text>
</g>
<g transform="translate(588, 28)" class="key keypos-7">
<rect rx="6" ry="6" x="-26" y="-26" width="52" height="52" class="key"/>
<text x="0" y="0" class="key tap">I</text>
</g>
<g transform="translate(644, 42)" class="key keypos-8">
<rect rx="6" ry="6" x="-26" y="-26" width="52" height="52" class="key"/>
<text x="0" y="0" class="key tap">O</text>
</g>
<g transform="translate(700, 56)" class="key keypos-9">
<rect rx="6" ry="6" x="-26" y="-26" width="52" height="52" class="key"/>
<text x="0" y="0" class="key tap">P</text>
</g>
<g transform="translate(28, 112)" class="key keypos-10">
<rect rx="6" ry="6" x="-26" y="-26" width="52" height="52" class="key"/>
<text x="0" y="0" class="key tap">A</text>
</g>
<g transform="translate(84, 98)" class="key keypos-11">
<rect rx="6" ry="6" x="-26" y="-26" width="52" height="52" class="key"/>
<text x="0" y="0" class="key tap">S</text>
</g>
<g transform="translate(140, 84)" class="key keypos-12">
<rect rx="6" ry="6" x="-26" y="-26" width="52" height="52" class="key"/>
<text x="0" y="0" class="key tap">D</text>
</g>
<g transform="translate(196, 98)" class="key keypos-13">
<rect rx="6" ry="6" x="-26" y="-26" width="52" height="52" class="key"/>
<text x="0" y="0" class="key tap">F</text>
</g>
<g transform="translate(252, 112)" class="key keypos-14">
<rect rx="6" ry="6" x="-26" y="-26" width="52" height="52" class="key"/>
<text x="0" y="0" class="key tap">G</text>
</g>
<g transform="translate(476, 112)" class="key keypos-15">
<rect rx="6" ry="6" x="-26" y="-26" width="52" height="52" class="key"/>
<text x="0" y="0" class="key tap">H</text>
</g>
<g transform="translate(532, 98)" class="key keypos-16">
<rect rx="6" ry="6" x="-26" y="-26" width="52" height="52" class="key"/>
<text x="0" y="0" class="key tap">J</text>
</g>
<g transform="translate(588, 84)" class="key keypos-17">
<rect rx="6" ry="6" x="-26" y="-26" width="52" height="52" class="key"/>
<text x="0" y="0" class="key tap">K</text>
</g>
<g transform="translate(644, 98)" class="key keypos-18">
<rect rx="6" ry="6" x="-26" y="-26" width="52" height="52" class="key"/>
<text x="0" y="0" class="key tap">L</text>
</g>
<g transform="translate(700, 112)" class="key keypos-19">
<rect rx="6" ry="6" x="-26" y="-26" width="52" height="52" class="key"/>
<text x="0" y="0" class="key tap">;</text>
</g>
<g transform="translate(28, 168)" class="key keypos-20">
<rect rx="6" ry="6" x="-26" y="-26" width="52" height="52" class="key"/>
<text x="0" y="0" class="key tap">Z</text>
<text x="0" y="24" class="key hold"><tspan style="font-size: 70%">LEFT SHIFT</tspan></text>
</g>
<g transform="translate(84, 154)" class="key keypos-21">
<rect rx="6" ry="6" x="-26" y="-26" width="52" height="52" class="key"/>
<text x="0" y="0" class="key tap">X</text>
</g>
<g transform="translate(140, 140)" class="key keypos-22">
<rect rx="6" ry="6" x="-26" y="-26" width="52" height="52" class="key"/>
<text x="0" y="0" class="key tap">C</text>
</g>
<g transform="translate(196, 154)" class="key keypos-23">
<rect rx="6" ry="6" x="-26" y="-26" width="52" height="52" class="key"/>
<text x="0" y="0" class="key tap">V</text>
</g>
<g transform="translate(252, 168)" class="key keypos-24">
<rect rx="6" ry="6" x="-26" y="-26" width="52" height="52" class="key"/>
<text x="0" y="0" class="key tap">B</text>
</g>
<g transform="translate(476, 168)" class="key keypos-25">
<rect rx="6" ry="6" x="-26" y="-26" width="52" height="52" class="key"/>
<text x="0" y="0" class="key tap">N</text>
</g>
<g transform="translate(532, 154)" class="key keypos-26">
<rect rx="6" ry="6" x="-26" y="-26" width="52" height="52" class="key"/>
<text x="0" y="0" class="key tap">M</text>
</g>
<g transform="translate(588, 140)" class="key keypos-27">
<rect rx="6" ry="6" x="-26" y="-26" width="52" height="52" class="key"/>
<text x="0" y="0" class="key tap">,</text>
</g>
<g transform="translate(644, 154)" class="key keypos-28">
<rect rx="6" ry="6" x="-26" y="-26" width="52" height="52" class="key"/>
<text x="0" y="0" class="key tap">.</text>
</g>
<g transform="translate(700, 168)" class="key keypos-29">
<rect rx="6" ry="6" x="-26" y="-26" width="52" height="52" class="key"/>
<text x="0" y="0" class="key tap">/</text>
<text x="0" y="24" class="key hold"><tspan style="font-size: 70%">LEFT SHIFT</tspan></text>
</g>
<g transform="translate(168, 224)" class="key keypos-30">
<rect rx="6" ry="6" x="-26" y="-26" width="52" height="52" class="key"/>
<text x="0" y="0" class="key tap">
<tspan x="0" dy="-0.6em">LEFT</tspan><tspan x="0" dy="1.2em">ALT</tspan>
</text>
</g>
<g transform="translate(224, 238)" class="key keypos-31">
<rect rx="6" ry="6" x="-26" y="-26" width="52" height="52" class="key"/>
<text x="0" y="0" class="key tap">
<tspan x="0" dy="-0.6em">LEFT</tspan><tspan x="0" dy="1.2em">WIN</tspan>
</text>
</g>
<g transform="translate(280, 252)" class="key keypos-32">
<rect rx="6" ry="6" x="-26" y="-26" width="52" height="52" class="key"/>
<text x="0" y="0" class="key tap">LCTRL</text>
</g>
<g transform="translate(448, 252)" class="key keypos-33">
<rect rx="6" ry="6" x="-26" y="-26" width="52" height="52" class="key"/>
<text x="0" y="0" class="key tap">SPACE</text>
<a href="#Number">
<text x="0" y="24" class="key hold layer-activator">Number</text>
</a></g>
<g transform="translate(504, 238)" class="key keypos-34">
<rect rx="6" ry="6" x="-26" y="-26" width="52" height="52" class="key"/>
<text x="0" y="0" class="key tap">ENTER</text>
</g>
<g transform="translate(560, 224)" class="key keypos-35">
<rect rx="6" ry="6" x="-26" y="-26" width="52" height="52" class="key"/>
<text x="0" y="0" class="key tap">ESCAPE</text>
</g>
<g class="combo combopos-0">
<rect rx="6" ry="6" x="182" y="218" width="28" height="26" class="combo"/>
<text x="196" y="231" class="combo tap">ENTER</text>
</g>
<g class="combo combopos-1">
<rect rx="6" ry="6" x="238" y="232" width="28" height="26" class="combo"/>
<text x="252" y="245" class="combo tap">SPACE</text>
</g>
<g class="combo combopos-2">
<path d="M224,238 l-38,-9" class="combo"/>
<path d="M224,238 l38,9" class="combo"/>
<rect rx="6" ry="6" x="210" y="225" width="28" height="26" class="combo"/>
<text x="224" y="238" class="combo tap">DELETE</text>
</g>
<g class="combo combopos-3">
<rect rx="6" ry="6" x="518" y="57" width="28" height="26" class="combo"/>
<text x="532" y="70" class="combo tap">[</text>
</g>
<g class="combo combopos-4">
<rect rx="6" ry="6" x="574" y="43" width="28" height="26" class="combo"/>
<text x="588" y="56" class="combo tap">]</text>
</g>
<g class="combo combopos-5">
<rect rx="6" ry="6" x="546" y="50" width="28" height="26" class="combo"/>
<text x="560" y="63" class="combo tap">{</text>
</g>
<g class="combo combopos-6">
<rect rx="6" ry="6" x="602" y="50" width="28" height="26" class="combo"/>
<text x="616" y="63" class="combo tap">}</text>
</g>
<g class="combo combopos-7">
<rect rx="6" ry="6" x="546" y="106" width="28" height="26" class="combo"/>
<text x="560" y="119" class="combo tap">(</text>
</g>
<g class="combo combopos-8">
<rect rx="6" ry="6" x="602" y="106" width="28" height="26" class="combo"/>
<text x="616" y="119" class="combo tap">)</text>
</g>
<g class="combo combopos-9">
<rect rx="6" ry="6" x="14" y="71" width="28" height="26" class="combo"/>
<text x="28" y="84" class="combo tap">`</text>
</g>
<g class="combo combopos-10">
<rect rx="6" ry="6" x="490" y="36" width="28" height="26" class="combo"/>
<text x="504" y="49" class="combo tap">~</text>
</g>
<g class="combo combopos-11">
<rect rx="6" ry="6" x="546" y="22" width="28" height="26" class="combo"/>
<text x="560" y="35" class="combo tap">+</text>
</g>
<g class="combo combopos-12">
<rect rx="6" ry="6" x="546" y="78" width="28" height="26" class="combo"/>
<text x="560" y="91" class="combo tap">-</text>
</g>
<g class="combo combopos-13">
<rect rx="6" ry="6" x="546" y="134" width="28" height="26" class="combo"/>
<text x="560" y="147" class="combo tap">_</text>
</g>
<g class="combo combopos-14">
<rect rx="6" ry="6" x="602" y="78" width="28" height="26" class="combo"/>
<text x="616" y="91" class="combo tap">=</text>
</g>
<g class="combo combopos-15">
<rect rx="6" ry="6" x="238" y="71" width="28" height="26" class="combo"/>
<text x="252" y="84" class="combo tap">!</text>
</g>
<g class="combo combopos-16">
<rect rx="6" ry="6" x="182" y="57" width="28" height="26" class="combo"/>
<text x="196" y="70" class="combo tap">|</text>
</g>
<g class="combo combopos-17">
<rect rx="6" ry="6" x="154" y="50" width="28" height="26" class="combo"/>
<text x="168" y="63" class="combo tap">$</text>
</g>
<g class="combo combopos-18">
<rect rx="6" ry="6" x="154" y="50" width="28" height="26" class="combo"/>
<text x="168" y="63" class="combo tap">%</text>
</g>
<g class="combo combopos-19">
<rect rx="6" ry="6" x="154" y="22" width="28" height="26" class="combo"/>
<text x="168" y="35" class="combo tap">*</text>
</g>
<g class="combo combopos-20">
<rect rx="6" ry="6" x="154" y="78" width="28" height="26" class="combo"/>
<text x="168" y="91" class="combo tap">&amp;</text>
</g>
<g class="combo combopos-21">
<rect rx="6" ry="6" x="210" y="64" width="28" height="26" class="combo"/>
<text x="224" y="77" class="combo tap">#</text>
</g>
<g class="combo combopos-22">
<rect rx="6" ry="6" x="210" y="64" width="28" height="26" class="combo"/>
<text x="224" y="77" class="combo tap">\</text>
</g>
<g class="combo combopos-23">
<rect rx="6" ry="6" x="210" y="36" width="28" height="26" class="combo"/>
<text x="224" y="49" class="combo tap">^</text>
</g>
<g class="combo combopos-24">
<rect rx="6" ry="6" x="210" y="92" width="28" height="26" class="combo"/>
<text x="224" y="105" class="combo tap">@</text>
</g>
<g class="combo combopos-25">
<path d="M574,154 l-111,87" class="combo"/>
<path d="M574,154 l111,-87" class="combo"/>
<rect rx="6" ry="6" x="560" y="141" width="28" height="26" class="combo"/>
<text x="574" y="154" class="combo tap">
<tspan x="574" dy="-0.6em">Ctl+</tspan><tspan x="574" dy="1.2em">BSPC</tspan>
</text>
</g>
<g class="combo combopos-26">
<path d="M490,175 l-33,61" class="combo"/>
<path d="M490,175 l33,-61" class="combo"/>
<rect rx="6" ry="6" x="476" y="162" width="28" height="26" class="combo"/>
<text x="490" y="175" class="combo tap">
<tspan x="490" dy="-0.6em">Ctl+</tspan><tspan x="490" dy="1.2em">LEFT</tspan>
</text>
</g>
<g class="combo combopos-27">
<path d="M518,168 l-58,70" class="combo"/>
<path d="M518,168 l58,-70" class="combo"/>
<rect rx="6" ry="6" x="504" y="155" width="28" height="26" class="combo"/>
<text x="518" y="168" class="combo tap">
<tspan x="518" dy="-0.6em">Ctl+</tspan><tspan x="518" dy="1.2em">DOWN</tspan>
</text>
</g>
<g class="combo combopos-28">
<path d="M546,175 l-83,65" class="combo"/>
<path d="M546,175 l83,-65" class="combo"/>
<rect rx="6" ry="6" x="532" y="162" width="28" height="26" class="combo"/>
<text x="546" y="175" class="combo tap">
<tspan x="546" dy="-0.6em">Ctl+</tspan><tspan x="546" dy="1.2em">RIGHT</tspan>
</text>
</g>
<g class="combo combopos-29">
<path d="M518,140 l-60,96" class="combo"/>
<path d="M518,140 l60,-96" class="combo"/>
<rect rx="6" ry="6" x="504" y="127" width="28" height="26" class="combo"/>
<text x="518" y="140" class="combo tap">Ctl+UP</text>
</g>
<g class="combo combopos-30">
<path d="M518,168 l-10,52" class="combo"/>
<path d="M518,168 l10,-52" class="combo"/>
<rect rx="6" ry="6" x="504" y="155" width="28" height="26" class="combo"/>
<text x="518" y="168" class="combo tap">LEFT</text>
</g>
<g class="combo combopos-31">
<path d="M574,168 l-57,57" class="combo"/>
<path d="M574,168 l57,-57" class="combo"/>
<rect rx="6" ry="6" x="560" y="155" width="28" height="26" class="combo"/>
<text x="574" y="168" class="combo tap">RIGHT</text>
</g>
<g class="combo combopos-32">
<path d="M546,133 l-35,88" class="combo"/>
<path d="M546,133 l35,-88" class="combo"/>
<rect rx="6" ry="6" x="532" y="120" width="28" height="26" class="combo"/>
<text x="546" y="133" class="combo tap">UP</text>
</g>
<g class="combo combopos-33">
<path d="M546,161 l-33,61" class="combo"/>
<path d="M546,161 l33,-61" class="combo"/>
<rect rx="6" ry="6" x="532" y="148" width="28" height="26" class="combo"/>
<text x="546" y="161" class="combo tap">DOWN</text>
</g>
<g class="combo combopos-34">
<rect rx="6" ry="6" x="42" y="92" width="28" height="26" class="combo"/>
<text x="56" y="105" class="combo tap">TAB</text>
</g>
<g class="combo combopos-35">
<rect rx="6" ry="6" x="42" y="36" width="28" height="26" class="combo"/>
<text x="56" y="49" class="combo tap">ESCAPE</text>
</g>
<g class="combo combopos-36">
<rect rx="6" ry="6" x="658" y="36" width="28" height="26" class="combo"/>
<text x="672" y="49" class="combo tap"><tspan style="font-size: 78%">BACKSPACE</tspan></text>
</g>
<g class="combo combopos-37">
<rect rx="6" ry="6" x="658" y="92" width="28" height="26" class="combo"/>
<text x="672" y="105" class="combo tap">ENTER</text>
</g>
<g class="combo combopos-38">
<rect rx="6" ry="6" x="462" y="71" width="28" height="26" class="combo"/>
<text x="476" y="84" class="combo tap">&#x27;</text>
</g>
<g class="combo combopos-39">
<rect rx="6" ry="6" x="490" y="64" width="28" height="26" class="combo"/>
<text x="504" y="77" class="combo tap">&quot;</text>
</g>
</g>
</g>
<g transform="translate(30, 336)" class="layer-LDT_">
<text x="0" y="28" class="label" id="LDT_">LDT_:</text>
<g transform="translate(0, 56)">
<g transform="translate(28, 56)" class="key keypos-0">
<rect rx="6" ry="6" x="-26" y="-26" width="52" height="52" class="key"/>
<text x="0" y="0" class="key tap">Q</text>
</g>
<g transform="translate(84, 42)" class="key keypos-1">
<rect rx="6" ry="6" x="-26" y="-26" width="52" height="52" class="key"/>
<text x="0" y="0" class="key tap">W</text>
</g>
<g transform="translate(140, 28)" class="key keypos-2">
<rect rx="6" ry="6" x="-26" y="-26" width="52" height="52" class="key"/>
<text x="0" y="0" class="key tap">E</text>
</g>
<g transform="translate(196, 42)" class="key keypos-3">
<rect rx="6" ry="6" x="-26" y="-26" width="52" height="52" class="key"/>
<text x="0" y="0" class="key tap">R</text>
</g>
<g transform="translate(252, 56)" class="key keypos-4">
<rect rx="6" ry="6" x="-26" y="-26" width="52" height="52" class="key"/>
<text x="0" y="0" class="key tap">T</text>
</g>
<g transform="translate(476, 56)" class="key keypos-5">
<rect rx="6" ry="6" x="-26" y="-26" width="52" height="52" class="key"/>
<text x="0" y="0" class="key tap">Y</text>
</g>
<g transform="translate(532, 42)" class="key keypos-6">
<rect rx="6" ry="6" x="-26" y="-26" width="52" height="52" class="key"/>
<text x="0" y="0" class="key tap">U</text>
</g>
<g transform="translate(588, 28)" class="key keypos-7">
<rect rx="6" ry="6" x="-26" y="-26" width="52" height="52" class="key"/>
<text x="0" y="0" class="key tap">I</text>
</g>
<g transform="translate(644, 42)" class="key keypos-8">
<rect rx="6" ry="6" x="-26" y="-26" width="52" height="52" class="key"/>
<text x="0" y="0" class="key tap">O</text>
</g>
<g transform="translate(700, 56)" class="key keypos-9">
<rect rx="6" ry="6" x="-26" y="-26" width="52" height="52" class="key"/>
<text x="0" y="0" class="key tap">P</text>
</g>
<g transform="translate(28, 112)" class="key keypos-10">
<rect rx="6" ry="6" x="-26" y="-26" width="52" height="52" class="key"/>
<text x="0" y="0" class="key tap">A</text>
</g>
<g transform="translate(84, 98)" class="key keypos-11">
<rect rx="6" ry="6" x="-26" y="-26" width="52" height="52" class="key"/>
<text x="0" y="0" class="key tap">S</text>
</g>
<g transform="translate(140, 84)" class="key keypos-12">
<rect rx="6" ry="6" x="-26" y="-26" width="52" height="52" class="key"/>
<text x="0" y="0" class="key tap">D</text>
</g>
<g transform="translate(196, 98)" class="key keypos-13">
<rect rx="6" ry="6" x="-26" y="-26" width="52" height="52" class="key"/>
<text x="0" y="0" class="key tap">F</text>
</g>
<g transform="translate(252, 112)" class="key keypos-14">
<rect rx="6" ry="6" x="-26" y="-26" width="52" height="52" class="key"/>
<text x="0" y="0" class="key tap">G</text>
</g>
<g transform="translate(476, 112)" class="key keypos-15">
<rect rx="6" ry="6" x="-26" y="-26" width="52" height="52" class="key"/>
<text x="0" y="0" class="key tap">H</text>
</g>
<g transform="translate(532, 98)" class="key keypos-16">
<rect rx="6" ry="6" x="-26" y="-26" width="52" height="52" class="key"/>
<text x="0" y="0" class="key tap">J</text>
</g>
<g transform="translate(588, 84)" class="key keypos-17">
<rect rx="6" ry="6" x="-26" y="-26" width="52" height="52" class="key"/>
<text x="0" y="0" class="key tap">K</text>
</g>
<g transform="translate(644, 98)" class="key keypos-18">
<rect rx="6" ry="6" x="-26" y="-26" width="52" height="52" class="key"/>
<text x="0" y="0" class="key tap">L</text>
</g>
<g transform="translate(700, 112)" class="key keypos-19">
<rect rx="6" ry="6" x="-26" y="-26" width="52" height="52" class="key"/>
<text x="0" y="0" class="key tap">;</text>
</g>
<g transform="translate(28, 168)" class="key keypos-20">
<rect rx="6" ry="6" x="-26" y="-26" width="52" height="52" class="key"/>
<text x="0" y="0" class="key tap">Z</text>
<text x="0" y="24" class="key hold"><tspan style="font-size: 70%">LEFT SHIFT</tspan></text>
</g>
<g transform="translate(84, 154)" class="key keypos-21">
<rect rx="6" ry="6" x="-26" y="-26" width="52" height="52" class="key"/>
<text x="0" y="0" class="key tap">X</text>
</g>
<g transform="translate(140, 140)" class="key keypos-22">
<rect rx="6" ry="6" x="-26" y="-26" width="52" height="52" class="key"/>
<text x="0" y="0" class="key tap">C</text>
</g>
<g transform="translate(196, 154)" class="key keypos-23">
<rect rx="6" ry="6" x="-26" y="-26" width="52" height="52" class="key"/>
<text x="0" y="0" class="key tap">V</text>
</g>
<g transform="translate(252, 168)" class="key keypos-24">
<rect rx="6" ry="6" x="-26" y="-26" width="52" height="52" class="key"/>
<text x="0" y="0" class="key tap">B</text>
</g>
<g transform="translate(476, 168)" class="key keypos-25">
<rect rx="6" ry="6" x="-26" y="-26" width="52" height="52" class="key"/>
<text x="0" y="0" class="key tap">N</text>
</g>
<g transform="translate(532, 154)" class="key keypos-26">
<rect rx="6" ry="6" x="-26" y="-26" width="52" height="52" class="key"/>
<text x="0" y="0" class="key tap">M</text>
</g>
<g transform="translate(588, 140)" class="key keypos-27">
<rect rx="6" ry="6" x="-26" y="-26" width="52" height="52" class="key"/>
<text x="0" y="0" class="key tap">,</text>
</g>
<g transform="translate(644, 154)" class="key keypos-28">
<rect rx="6" ry="6" x="-26" y="-26" width="52" height="52" class="key"/>
<text x="0" y="0" class="key tap">.</text>
</g>
<g transform="translate(700, 168)" class="key keypos-29">
<rect rx="6" ry="6" x="-26" y="-26" width="52" height="52" class="key"/>
<text x="0" y="0" class="key tap">/</text>
<text x="0" y="24" class="key hold"><tspan style="font-size: 70%">LEFT SHIFT</tspan></text>
</g>
<g transform="translate(168, 224)" class="key keypos-30">
<rect rx="6" ry="6" x="-26" y="-26" width="52" height="52" class="key"/>
<text x="0" y="0" class="key tap">LCTRL</text>
</g>
<g transform="translate(224, 238)" class="key keypos-31">
<rect rx="6" ry="6" x="-26" y="-26" width="52" height="52" class="key"/>
<text x="0" y="0" class="key tap">
<tspan x="0" dy="-0.6em">LEFT</tspan><tspan x="0" dy="1.2em">ALT</tspan>
</text>
</g>
<g transform="translate(280, 252)" class="key keypos-32">
<rect rx="6" ry="6" x="-26" y="-26" width="52" height="52" class="key"/>
<text x="0" y="0" class="key tap">
<tspan x="0" dy="-0.6em">LEFT</tspan><tspan x="0" dy="1.2em">WIN</tspan>
</text>
</g>
<g transform="translate(448, 252)" class="key keypos-33">
<rect rx="6" ry="6" x="-26" y="-26" width="52" height="52" class="key"/>
<text x="0" y="0" class="key tap">SPACE</text>
<a href="#Number">
<text x="0" y="24" class="key hold layer-activator">Number</text>
</a></g>
<g transform="translate(504, 238)" class="key keypos-34">
<rect rx="6" ry="6" x="-26" y="-26" width="52" height="52" class="key"/>
<text x="0" y="0" class="key tap">ENTER</text>
</g>
<g transform="translate(560, 224)" class="key keypos-35">
<rect rx="6" ry="6" x="-26" y="-26" width="52" height="52" class="key"/>
<text x="0" y="0" class="key tap">ESCAPE</text>
</g>
<g class="combo combopos-0">
<rect rx="6" ry="6" x="182" y="218" width="28" height="26" class="combo"/>
<text x="196" y="231" class="combo tap">ENTER</text>
</g>
<g class="combo combopos-1">
<rect rx="6" ry="6" x="238" y="232" width="28" height="26" class="combo"/>
<text x="252" y="245" class="combo tap">SPACE</text>
</g>
<g class="combo combopos-2">
<path d="M224,238 l-38,-9" class="combo"/>
<path d="M224,238 l38,9" class="combo"/>
<rect rx="6" ry="6" x="210" y="225" width="28" height="26" class="combo"/>
<text x="224" y="238" class="combo tap">DELETE</text>
</g>
<g class="combo combopos-3">
<rect rx="6" ry="6" x="518" y="57" width="28" height="26" class="combo"/>
<text x="532" y="70" class="combo tap">[</text>
</g>
<g class="combo combopos-4">
<rect rx="6" ry="6" x="574" y="43" width="28" height="26" class="combo"/>
<text x="588" y="56" class="combo tap">]</text>
</g>
<g class="combo combopos-5">
<rect rx="6" ry="6" x="546" y="50" width="28" height="26" class="combo"/>
<text x="560" y="63" class="combo tap">{</text>
</g>
<g class="combo combopos-6">
<rect rx="6" ry="6" x="602" y="50" width="28" height="26" class="combo"/>
<text x="616" y="63" class="combo tap">}</text>
</g>
<g class="combo combopos-7">
<rect rx="6" ry="6" x="546" y="106" width="28" height="26" class="combo"/>
<text x="560" y="119" class="combo tap">(</text>
</g>
<g class="combo combopos-8">
<rect rx="6" ry="6" x="602" y="106" width="28" height="26" class="combo"/>
<text x="616" y="119" class="combo tap">)</text>
</g>
<g class="combo combopos-9">
<rect rx="6" ry="6" x="14" y="71" width="28" height="26" class="combo"/>
<text x="28" y="84" class="combo tap">`</text>
</g>
<g class="combo combopos-10">
<rect rx="6" ry="6" x="490" y="36" width="28" height="26" class="combo"/>
<text x="504" y="49" class="combo tap">~</text>
</g>
<g class="combo combopos-11">
<rect rx="6" ry="6" x="546" y="22" width="28" height="26" class="combo"/>
<text x="560" y="35" class="combo tap">+</text>
</g>
<g class="combo combopos-12">
<rect rx="6" ry="6" x="546" y="78" width="28" height="26" class="combo"/>
<text x="560" y="91" class="combo tap">-</text>
</g>
<g class="combo combopos-13">
<rect rx="6" ry="6" x="546" y="134" width="28" height="26" class="combo"/>
<text x="560" y="147" class="combo tap">_</text>
</g>
<g class="combo combopos-14">
<rect rx="6" ry="6" x="602" y="78" width="28" height="26" class="combo"/>
<text x="616" y="91" class="combo tap">=</text>
</g>
<g class="combo combopos-15">
<rect rx="6" ry="6" x="238" y="71" width="28" height="26" class="combo"/>
<text x="252" y="84" class="combo tap">!</text>
</g>
<g class="combo combopos-16">
<rect rx="6" ry="6" x="182" y="57" width="28" height="26" class="combo"/>
<text x="196" y="70" class="combo tap">|</text>
</g>
<g class="combo combopos-17">
<rect rx="6" ry="6" x="154" y="50" width="28" height="26" class="combo"/>
<text x="168" y="63" class="combo tap">$</text>
</g>
<g class="combo combopos-18">
<rect rx="6" ry="6" x="154" y="50" width="28" height="26" class="combo"/>
<text x="168" y="63" class="combo tap">%</text>
</g>
<g class="combo combopos-19">
<rect rx="6" ry="6" x="154" y="22" width="28" height="26" class="combo"/>
<text x="168" y="35" class="combo tap">*</text>
</g>
<g class="combo combopos-20">
<rect rx="6" ry="6" x="154" y="78" width="28" height="26" class="combo"/>
<text x="168" y="91" class="combo tap">&amp;</text>
</g>
<g class="combo combopos-21">
<rect rx="6" ry="6" x="210" y="64" width="28" height="26" class="combo"/>
<text x="224" y="77" class="combo tap">#</text>
</g>
<g class="combo combopos-22">
<rect rx="6" ry="6" x="210" y="64" width="28" height="26" class="combo"/>
<text x="224" y="77" class="combo tap">\</text>
</g>
<g class="combo combopos-23">
<rect rx="6" ry="6" x="210" y="36" width="28" height="26" class="combo"/>
<text x="224" y="49" class="combo tap">^</text>
</g>
<g class="combo combopos-24">
<rect rx="6" ry="6" x="210" y="92" width="28" height="26" class="combo"/>
<text x="224" y="105" class="combo tap">@</text>
</g>
<g class="combo combopos-25">
<path d="M574,154 l-111,87" class="combo"/>
<path d="M574,154 l111,-87" class="combo"/>
<rect rx="6" ry="6" x="560" y="141" width="28" height="26" class="combo"/>
<text x="574" y="154" class="combo tap">
<tspan x="574" dy="-0.6em">Alt+</tspan><tspan x="574" dy="1.2em">BSPC</tspan>
</text>
</g>
<g class="combo combopos-26">
<path d="M490,175 l-33,61" class="combo"/>
<path d="M490,175 l33,-61" class="combo"/>
<rect rx="6" ry="6" x="476" y="162" width="28" height="26" class="combo"/>
<text x="490" y="175" class="combo tap">
<tspan x="490" dy="-0.6em">Alt+</tspan><tspan x="490" dy="1.2em">LEFT</tspan>
</text>
</g>
<g class="combo combopos-27">
<path d="M518,168 l-58,70" class="combo"/>
<path d="M518,168 l58,-70" class="combo"/>
<rect rx="6" ry="6" x="504" y="155" width="28" height="26" class="combo"/>
<text x="518" y="168" class="combo tap">
<tspan x="518" dy="-0.6em">Alt+</tspan><tspan x="518" dy="1.2em">DOWN</tspan>
</text>
</g>
<g class="combo combopos-28">
<path d="M518,140 l-60,96" class="combo"/>
<path d="M518,140 l60,-96" class="combo"/>
<rect rx="6" ry="6" x="504" y="127" width="28" height="26" class="combo"/>
<text x="518" y="140" class="combo tap">Alt+UP</text>
</g>
<g class="combo combopos-29">
<path d="M518,168 l-10,52" class="combo"/>
<path d="M518,168 l10,-52" class="combo"/>
<rect rx="6" ry="6" x="504" y="155" width="28" height="26" class="combo"/>
<text x="518" y="168" class="combo tap">LEFT</text>
</g>
<g class="combo combopos-30">
<path d="M574,168 l-57,57" class="combo"/>
<path d="M574,168 l57,-57" class="combo"/>
<rect rx="6" ry="6" x="560" y="155" width="28" height="26" class="combo"/>
<text x="574" y="168" class="combo tap">RIGHT</text>
</g>
<g class="combo combopos-31">
<path d="M546,133 l-35,88" class="combo"/>
<path d="M546,133 l35,-88" class="combo"/>
<rect rx="6" ry="6" x="532" y="120" width="28" height="26" class="combo"/>
<text x="546" y="133" class="combo tap">UP</text>
</g>
<g class="combo combopos-32">
<path d="M546,161 l-33,61" class="combo"/>
<path d="M546,161 l33,-61" class="combo"/>
<rect rx="6" ry="6" x="532" y="148" width="28" height="26" class="combo"/>
<text x="546" y="161" class="combo tap">DOWN</text>
</g>
<g class="combo combopos-33">
<rect rx="6" ry="6" x="42" y="92" width="28" height="26" class="combo"/>
<text x="56" y="105" class="combo tap">TAB</text>
</g>
<g class="combo combopos-34">
<rect rx="6" ry="6" x="42" y="36" width="28" height="26" class="combo"/>
<text x="56" y="49" class="combo tap">ESCAPE</text>
</g>
<g class="combo combopos-35">
<rect rx="6" ry="6" x="658" y="36" width="28" height="26" class="combo"/>
<text x="672" y="49" class="combo tap"><tspan style="font-size: 78%">BACKSPACE</tspan></text>
</g>
<g class="combo combopos-36">
<rect rx="6" ry="6" x="658" y="92" width="28" height="26" class="combo"/>
<text x="672" y="105" class="combo tap">ENTER</text>
</g>
<g class="combo combopos-37">
<path d="M546,175 l-83,65" class="combo"/>
<path d="M546,175 l83,-65" class="combo"/>
<rect rx="6" ry="6" x="532" y="162" width="28" height="26" class="combo"/>
<text x="546" y="175" class="combo tap">
<tspan x="546" dy="-0.6em">Alt+</tspan><tspan x="546" dy="1.2em">RIGHT</tspan>
</text>
</g>
<g class="combo combopos-38">
<rect rx="6" ry="6" x="462" y="71" width="28" height="26" class="combo"/>
<text x="476" y="84" class="combo tap">&#x27;</text>
</g>
<g class="combo combopos-39">
<rect rx="6" ry="6" x="490" y="64" width="28" height="26" class="combo"/>
<text x="504" y="77" class="combo tap">&quot;</text>
</g>
</g>
</g>
<g transform="translate(30, 672)" class="layer-Number">
<text x="0" y="28" class="label" id="Number">Number:</text>
<g transform="translate(0, 56)">
<g transform="translate(28, 56)" class="key keypos-0">
<rect rx="6" ry="6" x="-26" y="-26" width="52" height="52" class="key"/>
<a href="#LDT">
<text x="0" y="0" class="key tap layer-activator">LDT</text>
</a><text x="0" y="24" class="key hold">toggle</text>
</g>
<g transform="translate(84, 42)" class="key keypos-1">
<rect rx="6" ry="6" x="-26" y="-26" width="52" height="52" class="key"/>
<a href="#LDT_">
<text x="0" y="0" class="key tap layer-activator">LDT_</text>
</a><text x="0" y="24" class="key hold">toggle</text>
</g>
<g transform="translate(140, 28)" class="key keypos-2">
<rect rx="6" ry="6" x="-26" y="-26" width="52" height="52" class="key"/>
<text x="0" y="0" class="key tap"><tspan style="font-size: 64%">&amp;studio_un…</tspan></text>
</g>
<g transform="translate(196, 42)" class="key keypos-3">
<rect rx="6" ry="6" x="-26" y="-26" width="52" height="52" class="key"/>
<text x="0" y="0" class="key tap">F2</text>
</g>
<g transform="translate(252, 56)" class="key keypos-4">
<rect rx="6" ry="6" x="-26" y="-26" width="52" height="52" class="key"/>
<text x="0" y="0" class="key tap">F12</text>
</g>
<g transform="translate(476, 56)" class="key trans keypos-5">
<rect rx="6" ry="6" x="-26" y="-26" width="52" height="52" class="key trans"/>
<text x="0" y="0" class="key trans tap">▽</text>
</g>
<g transform="translate(532, 42)" class="key keypos-6">
<rect rx="6" ry="6" x="-26" y="-26" width="52" height="52" class="key"/>
<text x="0" y="0" class="key tap">1</text>
</g>
<g transform="translate(588, 28)" class="key keypos-7">
<rect rx="6" ry="6" x="-26" y="-26" width="52" height="52" class="key"/>
<text x="0" y="0" class="key tap">2</text>
</g>
<g transform="translate(644, 42)" class="key keypos-8">
<rect rx="6" ry="6" x="-26" y="-26" width="52" height="52" class="key"/>
<text x="0" y="0" class="key tap">3</text>
</g>
<g transform="translate(700, 56)" class="key keypos-9">
<rect rx="6" ry="6" x="-26" y="-26" width="52" height="52" class="key"/>
<text x="0" y="0" class="key tap"><tspan style="font-size: 78%">BACKSPACE</tspan></text>
</g>
<g transform="translate(28, 112)" class="key keypos-10">
<rect rx="6" ry="6" x="-26" y="-26" width="52" height="52" class="key"/>
<text x="0" y="0" class="key tap">BT</text>
<text x="0" y="24" class="key hold">0</text>
</g>
<g transform="translate(84, 98)" class="key keypos-11">
<rect rx="6" ry="6" x="-26" y="-26" width="52" height="52" class="key"/>
<text x="0" y="0" class="key tap">BT</text>
<text x="0" y="24" class="key hold">1</text>
</g>
<g transform="translate(140, 84)" class="key keypos-12">
<rect rx="6" ry="6" x="-26" y="-26" width="52" height="52" class="key"/>
<text x="0" y="0" class="key tap">BT</text>
<text x="0" y="24" class="key hold">2</text>
</g>
<g transform="translate(196, 98)" class="key keypos-13">
<rect rx="6" ry="6" x="-26" y="-26" width="52" height="52" class="key"/>
<text x="0" y="0" class="key tap">BT</text>
<text x="0" y="24" class="key hold">3</text>
</g>
<g transform="translate(252, 112)" class="key keypos-14">
<rect rx="6" ry="6" x="-26" y="-26" width="52" height="52" class="key"/>
<text x="0" y="0" class="key tap">
<tspan x="0" dy="-0.6em">BT</tspan><tspan x="0" dy="1.2em">CLR</tspan>
</text>
</g>
<g transform="translate(476, 112)" class="key keypos-15">
<rect rx="6" ry="6" x="-26" y="-26" width="52" height="52" class="key"/>
<text x="0" y="0" class="key tap">0</text>
</g>
<g transform="translate(532, 98)" class="key keypos-16">
<rect rx="6" ry="6" x="-26" y="-26" width="52" height="52" class="key"/>
<text x="0" y="0" class="key tap">4</text>
</g>
<g transform="translate(588, 84)" class="key keypos-17">
<rect rx="6" ry="6" x="-26" y="-26" width="52" height="52" class="key"/>
<text x="0" y="0" class="key tap">5</text>
</g>
<g transform="translate(644, 98)" class="key keypos-18">
<rect rx="6" ry="6" x="-26" y="-26" width="52" height="52" class="key"/>
<text x="0" y="0" class="key tap">6</text>
</g>
<g transform="translate(700, 112)" class="key keypos-19">
<rect rx="6" ry="6" x="-26" y="-26" width="52" height="52" class="key"/>
<text x="0" y="0" class="key tap">ENTER</text>
</g>
<g transform="translate(28, 168)" class="key trans keypos-20">
<rect rx="6" ry="6" x="-26" y="-26" width="52" height="52" class="key trans"/>
<text x="0" y="0" class="key trans tap">▽</text>
</g>
<g transform="translate(84, 154)" class="key trans keypos-21">
<rect rx="6" ry="6" x="-26" y="-26" width="52" height="52" class="key trans"/>
<text x="0" y="0" class="key trans tap">▽</text>
</g>
<g transform="translate(140, 140)" class="key trans keypos-22">
<rect rx="6" ry="6" x="-26" y="-26" width="52" height="52" class="key trans"/>
<text x="0" y="0" class="key trans tap">▽</text>
</g>
<g transform="translate(196, 154)" class="key trans keypos-23">
<rect rx="6" ry="6" x="-26" y="-26" width="52" height="52" class="key trans"/>
<text x="0" y="0" class="key trans tap">▽</text>
</g>
<g transform="translate(252, 168)" class="key trans keypos-24">
<rect rx="6" ry="6" x="-26" y="-26" width="52" height="52" class="key trans"/>
<text x="0" y="0" class="key trans tap">▽</text>
</g>
<g transform="translate(476, 168)" class="key trans keypos-25">
<rect rx="6" ry="6" x="-26" y="-26" width="52" height="52" class="key trans"/>
<text x="0" y="0" class="key trans tap">▽</text>
</g>
<g transform="translate(532, 154)" class="key keypos-26">
<rect rx="6" ry="6" x="-26" y="-26" width="52" height="52" class="key"/>
<text x="0" y="0" class="key tap">7</text>
</g>
<g transform="translate(588, 140)" class="key keypos-27">
<rect rx="6" ry="6" x="-26" y="-26" width="52" height="52" class="key"/>
<text x="0" y="0" class="key tap">8</text>
</g>
<g transform="translate(644, 154)" class="key keypos-28">
<rect rx="6" ry="6" x="-26" y="-26" width="52" height="52" class="key"/>
<text x="0" y="0" class="key tap">9</text>
</g>
<g transform="translate(700, 168)" class="key keypos-29">
<rect rx="6" ry="6" x="-26" y="-26" width="52" height="52" class="key"/>
<text x="0" y="0" class="key tap">DELETE</text>
</g>
<g transform="translate(168, 224)" class="key keypos-30">
<rect rx="6" ry="6" x="-26" y="-26" width="52" height="52" class="key"/>
<text x="0" y="0" class="key tap">LALT</text>
</g>
<g transform="translate(224, 238)" class="key keypos-31">
<rect rx="6" ry="6" x="-26" y="-26" width="52" height="52" class="key"/>
<text x="0" y="0" class="key tap">LWIN</text>
</g>
<g transform="translate(280, 252)" class="key keypos-32">
<rect rx="6" ry="6" x="-26" y="-26" width="52" height="52" class="key"/>
<text x="0" y="0" class="key tap">LCTRL</text>
</g>
<g transform="translate(448, 252)" class="key held keypos-33">
<rect rx="6" ry="6" x="-26" y="-26" width="52" height="52" class="key held"/>
</g>
<g transform="translate(504, 238)" class="key keypos-34">
<rect rx="6" ry="6" x="-26" y="-26" width="52" height="52" class="key"/>
<text x="0" y="0" class="key tap">ENTER</text>
</g>
<g transform="translate(560, 224)" class="key keypos-35">
<rect rx="6" ry="6" x="-26" y="-26" width="52" height="52" class="key"/>
<text x="0" y="0" class="key tap">ESCAPE</text>
</g>
<g class="combo combopos-0">
<rect rx="6" ry="6" x="182" y="218" width="28" height="26" class="combo"/>
<text x="196" y="231" class="combo tap">ENTER</text>
</g>
<g class="combo combopos-1">
<rect rx="6" ry="6" x="238" y="232" width="28" height="26" class="combo"/>
<text x="252" y="245" class="combo tap">SPACE</text>
</g>
<g class="combo combopos-2">
<path d="M224,238 l-38,-9" class="combo"/>
<path d="M224,238 l38,9" class="combo"/>
<rect rx="6" ry="6" x="210" y="225" width="28" height="26" class="combo"/>
<text x="224" y="238" class="combo tap">DELETE</text>
</g>
<g class="combo combopos-3">
<rect rx="6" ry="6" x="238" y="71" width="28" height="26" class="combo"/>
<text x="252" y="84" class="combo tap">!</text>
</g>
<g class="combo combopos-4">
<rect rx="6" ry="6" x="182" y="57" width="28" height="26" class="combo"/>
<text x="196" y="70" class="combo tap">|</text>
</g>
<g class="combo combopos-5">
<rect rx="6" ry="6" x="154" y="50" width="28" height="26" class="combo"/>
<text x="168" y="63" class="combo tap">$</text>
</g>
<g class="combo combopos-6">
<rect rx="6" ry="6" x="154" y="50" width="28" height="26" class="combo"/>
<text x="168" y="63" class="combo tap">%</text>
</g>
<g class="combo combopos-7">
<rect rx="6" ry="6" x="154" y="22" width="28" height="26" class="combo"/>
<text x="168" y="35" class="combo tap">*</text>
</g>
<g class="combo combopos-8">
<rect rx="6" ry="6" x="154" y="78" width="28" height="26" class="combo"/>
<text x="168" y="91" class="combo tap">&amp;</text>
</g>
<g class="combo combopos-9">
<rect rx="6" ry="6" x="210" y="64" width="28" height="26" class="combo"/>
<text x="224" y="77" class="combo tap">#</text>
</g>
<g class="combo combopos-10">
<rect rx="6" ry="6" x="210" y="64" width="28" height="26" class="combo"/>
<text x="224" y="77" class="combo tap">\</text>
</g>
<g class="combo combopos-11">
<rect rx="6" ry="6" x="210" y="36" width="28" height="26" class="combo"/>
<text x="224" y="49" class="combo tap">^</text>
</g>
<g class="combo combopos-12">
<rect rx="6" ry="6" x="210" y="92" width="28" height="26" class="combo"/>
<text x="224" y="105" class="combo tap">@</text>
</g>
<g class="combo combopos-13">
<path d="M518,168 l-10,52" class="combo"/>
<path d="M518,168 l10,-52" class="combo"/>
<rect rx="6" ry="6" x="504" y="155" width="28" height="26" class="combo"/>
<text x="518" y="168" class="combo tap">LEFT</text>
</g>
<g class="combo combopos-14">
<path d="M574,168 l-57,57" class="combo"/>
<path d="M574,168 l57,-57" class="combo"/>
<rect rx="6" ry="6" x="560" y="155" width="28" height="26" class="combo"/>
<text x="574" y="168" class="combo tap">RIGHT</text>
</g>
<g class="combo combopos-15">
<path d="M546,133 l-35,88" class="combo"/>
<path d="M546,133 l35,-88" class="combo"/>
<rect rx="6" ry="6" x="532" y="120" width="28" height="26" class="combo"/>
<text x="546" y="133" class="combo tap">UP</text>
</g>
<g class="combo combopos-16">
<path d="M546,161 l-33,61" class="combo"/>
<path d="M546,161 l33,-61" class="combo"/>
<rect rx="6" ry="6" x="532" y="148" width="28" height="26" class="combo"/>
<text x="546" y="161" class="combo tap">DOWN</text>
</g>
<g class="combo combopos-17">
<rect rx="6" ry="6" x="42" y="92" width="28" height="26" class="combo"/>
<text x="56" y="105" class="combo tap">TAB</text>
</g>
<g class="combo combopos-18">
<rect rx="6" ry="6" x="42" y="36" width="28" height="26" class="combo"/>
<text x="56" y="49" class="combo tap">ESCAPE</text>
</g>
<g class="combo combopos-19">
<rect rx="6" ry="6" x="658" y="36" width="28" height="26" class="combo"/>
<text x="672" y="49" class="combo tap"><tspan style="font-size: 78%">BACKSPACE</tspan></text>
</g>
<g class="combo combopos-20">
<rect rx="6" ry="6" x="658" y="92" width="28" height="26" class="combo"/>
<text x="672" y="105" class="combo tap">ENTER</text>
</g>
<g class="combo combopos-21">
<rect rx="6" ry="6" x="462" y="71" width="28" height="26" class="combo"/>
<text x="476" y="84" class="combo tap">&#x27;</text>
</g>
<g class="combo combopos-22">
<rect rx="6" ry="6" x="490" y="64" width="28" height="26" class="combo"/>
<text x="504" y="77" class="combo tap">&quot;</text>
</g>
</g>
</g>
</svg>
